<?xml version="1.0" encoding="UTF-8" standalone="no"?>
<svg
   xmlns:dc="http://purl.org/dc/elements/1.1/"
   xmlns:cc="http://creativecommons.org/ns#"
   xmlns:rdf="http://www.w3.org/1999/02/22-rdf-syntax-ns#"
   xmlns:svg="http://www.w3.org/2000/svg"
   xmlns="http://www.w3.org/2000/svg"
   xmlns:sodipodi="http://sodipodi.sourceforge.net/DTD/sodipodi-0.dtd"
   xmlns:inkscape="http://www.inkscape.org/namespaces/inkscape"
   version="1.1"
   id="svg833"
   width="694.66669"
   height="226.66667"
   viewBox="0 0 694.66669 226.66667"
   sodipodi:docname="logo.svg"
   inkscape:version="1.0.2 (e86c870879, 2021-01-15)">
  <metadata
     id="metadata839">
    <rdf:RDF>
      <cc:Work
         rdf:about="">
        <dc:format>image/svg+xml</dc:format>
        <dc:type
           rdf:resource="http://purl.org/dc/dcmitype/StillImage" />
        <dc:title></dc:title>
      </cc:Work>
    </rdf:RDF>
  </metadata>
  <defs
     id="defs837" />
  <sodipodi:namedview
     pagecolor="#ffffff"
     bordercolor="#666666"
     borderopacity="1"
     objecttolerance="10"
     gridtolerance="10"
     guidetolerance="10"
     inkscape:pageopacity="0"
     inkscape:pageshadow="2"
     inkscape:window-width="2552"
     inkscape:window-height="1368"
     id="namedview835"
     showgrid="false"
     inkscape:zoom="1.9024701"
     inkscape:cx="267.11288"
     inkscape:cy="86.372404"
     inkscape:window-x="4"
     inkscape:window-y="431"
     inkscape:window-maximized="0"
     inkscape:current-layer="g841" />
  <g
     inkscape:groupmode="layer"
     inkscape:label="Image"
     id="g841">
    <text
       xml:space="preserve"
       style="font-style:normal;font-variant:normal;font-weight:normal;font-stretch:normal;font-size:95.6911px;line-height:1.25;font-family:'Tamil MN';-inkscape-font-specification:'Tamil MN, Normal';font-variant-ligatures:normal;font-variant-caps:normal;font-variant-numeric:normal;font-variant-east-asian:normal;fill:#000000;fill-opacity:1;stroke:none;stroke-width:2.39228"
       x="22.438616"
       y="175.47113"
       id="text847"><tspan
         sodipodi:role="line"
         id="tspan845"
         x="22.438616"
         y="175.47113"
         style="stroke-width:2.39228">Microbiome.jl</tspan></text>
    <circle
       style="fill:#d5635c;fill-opacity:1;stroke:#cb3d34;stroke-width:1.59173;stroke-linejoin:round;stroke-miterlimit:4;stroke-dasharray:none;stroke-opacity:1"
       id="circle875"
       cx="129.8152"
       cy="104.7733"
       r="13.889606" />
    <circle
       style="fill:#d5635c;fill-opacity:1;stroke:#cb3d34;stroke-width:1.59173;stroke-linejoin:round;stroke-miterlimit:4;stroke-dasharray:none;stroke-opacity:1"
       id="circle873"
       cx="110.96938"
       cy="97.852005"
       r="13.889606" />
    <circle
       style="fill:#d5635c;fill-opacity:1;stroke:#cb3d34;stroke-width:1.59173;stroke-linejoin:round;stroke-miterlimit:4;stroke-dasharray:none;stroke-opacity:1"
       id="circle871"
       cx="107.47649"
       cy="82.99823"
       r="13.889606" />
    <rect
       style="fill:#60ad51;fill-opacity:1;stroke:#389826;stroke-width:1.35205;stroke-linejoin:round;stroke-miterlimit:4;stroke-dasharray:none;stroke-opacity:0.980392"
       id="rect853"
       width="54.434387"
       height="17.070745"
       x="49.072941"
       y="142.60838"
       ry="5.505578"
       rx="0"
       transform="rotate(-44.352345)" />
    <path
       style="fill:none;stroke:#389826;stroke-width:1px;stroke-linecap:butt;stroke-linejoin:miter;stroke-opacity:1"
       d="m 182.91722,39.745571 c 1.44597,0.186387 3.07672,0.195419 3.8552,-0.299658 0.81053,-0.59844 0.99058,-1.282231 1.43815,-2.345437 0.1082,-0.845448 0.2031,-1.759888 0.27564,-3.195515 0.2071,-2.276822 0.60308,-2.830182 1.02117,-3.965932 0.98622,-1.30182 4.1721,-0.8903 4.75901,-0.8903 1.19025,0 4.30053,-2.39257 3.77703,-3.85171 -0.43141,-1.20247 -2.26871,-1.55991 -3.08211,-2.34157 -0.89305,-0.85819 -1.89758,-2.97024 -2.71466,-4.04763 -0.60022,-0.79144 -1.58741,-1.3615 -2.11834,-2.18871 -0.0329,-0.0513 -0.20042,-1.30095 -0.20042,-1.37279 -0.43396,-1.76452 -0.63414,-2.70952 0.31126,-3.84248 3.49046,-1.25972 5.54565,2.97453 8.47819,3.53719 2.42988,-0.3455 4.27292,-7.5602996 3.15359,-8.5986396"
       id="path861"
       sodipodi:nodetypes="cccccssssscccc" />
    <path
       style="fill:none;stroke:#389826;stroke-width:1px;stroke-linecap:butt;stroke-linejoin:miter;stroke-opacity:1"
       d="m 177.35323,32.006915 c -0.053,-1.970236 -0.005,-3.422546 1.38054,-4.786926 0.14803,-0.14583 0.37958,-0.17124 0.5585,-0.27691 0.0375,-0.0222 0.0616,-0.0616 0.0924,-0.0924 0.0923,-0.0606 0.17791,-0.13268 0.27674,-0.18183 1.03171,-0.51317 2.4881,-0.35908 3.61801,-0.35908 2.58547,0 5.14789,0.29391 7.73796,0.29391 1.38416,0 2.84469,0.37687 4.07365,-0.43214 1.03681,-1.02822 0.84489,-2.43068 0.91848,-3.74654 0.089,-0.57623 0.21274,-1.13157 0.35913,-1.64141 0.66285,-1.38155 0.84184,-1.76015 1.88249,-1.85583 2.06708,-0.13971 1.8146,0.19949 3.05156,0.72993 1.5987,0.85682 2.99704,0.78424 4.57346,0.94597 1.45768,-0.30652 1.29707,-2.17165 1.45362,-3.24515 0.0911,-1.34722 0.33409,-2.70932 0.14232,-3.86179 0.0835,-0.59955 -0.59481,-2.2673 -0.70631,-2.85069"
       id="path863"
       sodipodi:nodetypes="ccscsssccccccccc" />
    <path
       style="fill:none;stroke:#389826;stroke-width:1px;stroke-linecap:butt;stroke-linejoin:miter;stroke-opacity:1"
       d="m 180.75735,36.07097 c 1.90295,-0.507492 3.50904,-1.007788 3.2778,-3.32019 -1.09641,-2.187471 -1.89631,-4.045831 -2.79596,-6.036201 -0.23462,-0.6196 -1.05794,-2.52325 -0.63605,-3.15346 0.71301,-2.09389 1.41372,-2.74953 3.26459,-1.58554 2.29331,1.77048 2.94562,2.03218 4.74078,2.34639 0.46038,0.0806 1.23777,0.33194 1.75349,0.1823 1.09793,-0.31859 2.06595,-2.46092 2.31894,-3.47579 0.18652,-0.74828 0.24294,-1.56702 0.55177,-2.29159 0.2118,-0.49692 0.38799,-0.79514 0.66133,-1.2188 0.14065,-0.21799 1.17189,-0.8859 1.69263,-1.11956 2.45209,-1.10825 4.11994,-0.65879 5.42932,-1.19037 0.75451,-0.39552 1.43217,-0.69758 2.20846,-0.92966 1.13378,-0.2976 3.83789,-0.33705 5.64002,-0.28361"
       id="path865"
       sodipodi:nodetypes="cccccssssscccc" />
    <circle
       style="fill:#d5635c;fill-opacity:1;stroke:#cb3d34;stroke-width:1.59173;stroke-linejoin:round;stroke-miterlimit:4;stroke-dasharray:none;stroke-opacity:1"
       id="path867"
       cx="94.199921"
       cy="72.729317"
       r="13.889606" />
    <g
       id="g905"
       transform="matrix(0.5586191,-0.06041628,0.06041628,0.5586191,42.28515,70.953198)">
      <path
         sodipodi:type="star"
         style="fill:#aa79c1;fill-opacity:1;stroke:#9558b2;stroke-width:1.75748;stroke-linejoin:round;stroke-miterlimit:4;stroke-dasharray:none;stroke-opacity:0.992157"
         id="path881"
         sodipodi:sides="6"
         sodipodi:cx="219.79559"
         sodipodi:cy="61.821411"
         sodipodi:r1="23.946278"
         sodipodi:r2="20.738085"
         sodipodi:arg1="1.0471976"
         sodipodi:arg2="1.5707963"
         inkscape:flatsided="true"
         inkscape:rounded="0"
         inkscape:randomized="0"
         d="m 231.76873,82.559496 -23.94628,-10e-7 -11.97313,-20.738085 11.97314,-20.738084 23.94627,10e-7 11.97314,20.738085 z"
         transform="matrix(0.8660254,-0.5,-0.5,-0.8660254,60.357731,225.25812)" />
      <rect
         style="fill:#aa79c1;fill-opacity:1;stroke:none;stroke-width:1.57246;stroke-linejoin:round;stroke-miterlimit:4;stroke-dasharray:none;stroke-opacity:0.92549"
         id="rect883"
         width="9.2884302"
         height="39.439148"
         x="213.5531"
         y="70.707451"
         ry="1.3803985"
         transform="matrix(0.99976953,0.02146809,0.02670557,0.99964334,0,0)" />
      <path
         style="fill:none;stroke:#aa79c1;stroke-width:0.894203px;stroke-linecap:butt;stroke-linejoin:miter;stroke-opacity:1"
         d="m 218.61868,112.90809 -12.53907,5.61932 0.32258,12.07458"
         id="path885" />
      <path
         style="fill:none;stroke:#aa79c1;stroke-width:0.894203;stroke-linecap:butt;stroke-linejoin:miter;stroke-miterlimit:4;stroke-dasharray:none;stroke-opacity:1"
         d="m 222.08517,112.96612 -10.15453,5.68524 0.32338,12.10475"
         id="path887" />
      <path
         style="fill:none;stroke:#aa79c1;stroke-width:0.894203;stroke-linecap:butt;stroke-linejoin:miter;stroke-miterlimit:4;stroke-dasharray:none;stroke-opacity:1"
         d="m 222.08517,112.96612 -5.70628,5.81376 0.32519,12.17243"
         id="path889" />
      <path
         style="fill:none;stroke:#aa79c1;stroke-width:0.890549px;stroke-linecap:butt;stroke-linejoin:miter;stroke-opacity:1"
         d="m 223.43948,112.81695 12.74885,6.16302 0.32262,12.07602"
         id="path891" />
      <path
         style="fill:none;stroke:#aa79c1;stroke-width:0.890549;stroke-linecap:butt;stroke-linejoin:miter;stroke-miterlimit:4;stroke-dasharray:none;stroke-opacity:1"
         d="m 220.00081,112.7267 10.38482,6.12699 0.32342,12.10617"
         id="path893" />
      <path
         style="fill:none;stroke:#aa79c1;stroke-width:0.890549;stroke-linecap:butt;stroke-linejoin:miter;stroke-miterlimit:4;stroke-dasharray:none;stroke-opacity:1"
         d="m 220.00081,112.7267 5.97512,6.0653 0.32523,12.17386"
         id="path895" />
    </g>
    <path
       id="path907"
       style="fill:#6682e0;fill-opacity:1;stroke:#4668d9;stroke-width:1.07594;stroke-linejoin:round;stroke-miterlimit:4;stroke-dasharray:none;stroke-opacity:0.952941"
       d="m 389.30289,81.356039 a 7.5164244,7.5164244 0 0 0 -7.42861,7.516852 7.5164244,7.5164244 0 0 0 3.03029,6.03115 9.902255,16.226273 46.956772 0 0 -6.68259,4.49919 9.902255,16.226273 46.956772 0 0 -5.10021,18.311999 9.902255,16.226273 46.956772 0 0 18.6167,-3.83724 9.902255,16.226273 46.956772 0 0 5.1002,-18.311989 9.902255,16.226273 46.956772 0 0 -2.05942,-1.45419 7.5164244,7.5164244 0 0 0 2.12877,-5.23892 7.5164244,7.5164244 0 0 0 -7.51687,-7.516852 7.5164244,7.5164244 0 0 0 -0.0882,0 z" />
  </g>
</svg>
