<?xml version="1.0" encoding="UTF-8" standalone="no"?>
<svg
   xmlns:dc="http://purl.org/dc/elements/1.1/"
   xmlns:cc="http://creativecommons.org/ns#"
   xmlns:rdf="http://www.w3.org/1999/02/22-rdf-syntax-ns#"
   xmlns:svg="http://www.w3.org/2000/svg"
   xmlns="http://www.w3.org/2000/svg"
   xmlns:sodipodi="http://sodipodi.sourceforge.net/DTD/sodipodi-0.dtd"
   xmlns:inkscape="http://www.inkscape.org/namespaces/inkscape"
   width="34.227779mm"
   height="33.204609mm"
   viewBox="0 0 34.227779 33.204609"
   version="1.1"
   id="svg963"
   inkscape:version="1.0.2 (e86c870879, 2021-01-15)"
   sodipodi:docname="logo-small.svg">
  <defs
     id="defs957" />
  <sodipodi:namedview
     id="base"
     pagecolor="#ffffff"
     bordercolor="#666666"
     borderopacity="1.0"
     inkscape:pageopacity="0.0"
     inkscape:pageshadow="2"
     inkscape:zoom="1.979899"
     inkscape:cx="117.85887"
     inkscape:cy="79.048653"
     inkscape:document-units="mm"
     inkscape:current-layer="layer1"
     inkscape:document-rotation="0"
     showgrid="false"
     fit-margin-top="0"
     fit-margin-left="0"
     fit-margin-right="0"
     fit-margin-bottom="0"
     inkscape:window-width="1274"
     inkscape:window-height="1368"
     inkscape:window-x="1282"
     inkscape:window-y="431"
     inkscape:window-maximized="0" />
  <metadata
     id="metadata960">
    <rdf:RDF>
      <cc:Work
         rdf:about="">
        <dc:format>image/svg+xml</dc:format>
        <dc:type
           rdf:resource="http://purl.org/dc/dcmitype/StillImage" />
        <dc:title></dc:title>
      </cc:Work>
    </rdf:RDF>
  </metadata>
  <g
     inkscape:label="Layer 1"
     inkscape:groupmode="layer"
     id="layer1"
     transform="translate(-72.844442,-46.897699)">
    <circle
       style="fill:#d5635c;fill-opacity:1;stroke:#cb3d34;stroke-width:0.421145;stroke-linejoin:round;stroke-miterlimit:4;stroke-dasharray:none;stroke-opacity:1"
       id="circle875"
       cx="86.153183"
       cy="73.037857"
       r="3.6749582" />
    <circle
       style="fill:#d5635c;fill-opacity:1;stroke:#cb3d34;stroke-width:0.421145;stroke-linejoin:round;stroke-miterlimit:4;stroke-dasharray:none;stroke-opacity:1"
       id="circle873"
       cx="81.166893"
       cy="71.206596"
       r="3.6749582" />
    <circle
       style="fill:#d5635c;fill-opacity:1;stroke:#cb3d34;stroke-width:0.421145;stroke-linejoin:round;stroke-miterlimit:4;stroke-dasharray:none;stroke-opacity:1"
       id="circle871"
       cx="80.242729"
       cy="67.276535"
       r="3.6749582" />
    <rect
       style="fill:#60ad51;fill-opacity:1;stroke:#389826;stroke-width:0.35773;stroke-linejoin:round;stroke-miterlimit:4;stroke-dasharray:none;stroke-opacity:0.980392"
       id="rect853"
       width="14.402431"
       height="4.5166345"
       x="18.348749"
       y="106.35176"
       ry="1.4566842"
       rx="0"
       transform="rotate(-44.352344)" />
    <path
       style="fill:none;stroke:#389826;stroke-width:0.264583px;stroke-linecap:butt;stroke-linejoin:miter;stroke-opacity:1"
       d="m 100.20309,55.832605 c 0.38258,0.04931 0.81405,0.0517 1.02002,-0.07928 0.21446,-0.158337 0.26209,-0.339257 0.38051,-0.620564 0.0286,-0.223691 0.0537,-0.465637 0.0729,-0.84548 0.0548,-0.602409 0.15957,-0.748818 0.27019,-1.049319 0.26094,-0.34444 1.10387,-0.235559 1.25915,-0.235559 0.31492,0 1.13785,-0.633034 0.99934,-1.019098 -0.11414,-0.318153 -0.60026,-0.412726 -0.81547,-0.61954 -0.23629,-0.227063 -0.50207,-0.785876 -0.71826,-1.070936 -0.1588,-0.209401 -0.42,-0.36023 -0.56047,-0.579096 -0.009,-0.01357 -0.053,-0.344209 -0.053,-0.363217 -0.11482,-0.466863 -0.16778,-0.716894 0.0823,-1.016656 0.92352,-0.333301 1.46729,0.787011 2.24319,0.935881 0.64291,-0.09141 1.13054,-2.000329 0.83439,-2.275056"
       id="path861"
       sodipodi:nodetypes="cccccssssscccc" />
    <path
       style="fill:none;stroke:#389826;stroke-width:0.264583px;stroke-linecap:butt;stroke-linejoin:miter;stroke-opacity:1"
       d="m 98.730953,53.785085 c -0.01402,-0.521291 -0.0013,-0.905548 0.365268,-1.266541 0.03917,-0.03858 0.100431,-0.04531 0.14777,-0.07326 0.0099,-0.0059 0.0163,-0.0163 0.02445,-0.02445 0.02442,-0.01603 0.04707,-0.03511 0.07322,-0.04811 0.272973,-0.135776 0.65831,-0.09501 0.957259,-0.09501 0.68408,0 1.36205,0.07776 2.04734,0.07776 0.36623,0 0.75266,0.09971 1.07782,-0.114337 0.27432,-0.27205 0.22354,-0.643117 0.24301,-0.991272 0.0236,-0.152461 0.0563,-0.299395 0.095,-0.43429 0.17538,-0.365535 0.22274,-0.465706 0.49808,-0.491021 0.54691,-0.03697 0.48011,0.05278 0.80739,0.193127 0.42299,0.2267 0.79297,0.207497 1.21006,0.250288 0.38568,-0.0811 0.34319,-0.574583 0.38461,-0.858613 0.0241,-0.356452 0.0884,-0.716841 0.0376,-1.021765 0.0221,-0.158631 -0.15738,-0.59989 -0.18688,-0.754245"
       id="path863"
       sodipodi:nodetypes="ccscsssccccccccc" />
    <path
       style="fill:none;stroke:#389826;stroke-width:0.264583px;stroke-linecap:butt;stroke-linejoin:miter;stroke-opacity:1"
       d="m 99.631627,54.860366 c 0.503493,-0.134274 0.928433,-0.266644 0.867253,-0.878467 -0.29009,-0.578768 -0.501734,-1.070459 -0.739767,-1.597078 -0.06208,-0.163936 -0.279913,-0.66761 -0.168288,-0.834353 0.188651,-0.554008 0.374047,-0.727479 0.863755,-0.419507 0.60677,0.468439 0.77936,0.537681 1.25433,0.620816 0.12181,0.02133 0.3275,0.08783 0.46395,0.04823 0.29049,-0.08429 0.54661,-0.651118 0.61355,-0.919636 0.0493,-0.197982 0.0643,-0.414607 0.14599,-0.606317 0.056,-0.131476 0.10265,-0.21038 0.17498,-0.322474 0.0372,-0.05768 0.31006,-0.234394 0.44784,-0.296217 0.64878,-0.293224 1.09006,-0.174304 1.43651,-0.314952 0.19963,-0.104648 0.37892,-0.184568 0.58432,-0.245972 0.29998,-0.07874 1.01544,-0.08918 1.49225,-0.07504"
       id="path865"
       sodipodi:nodetypes="cccccssssscccc" />
    <circle
       style="fill:#d5635c;fill-opacity:1;stroke:#cb3d34;stroke-width:0.421145;stroke-linejoin:round;stroke-miterlimit:4;stroke-dasharray:none;stroke-opacity:1"
       id="path867"
       cx="76.729973"
       cy="64.559555"
       r="3.6749582" />
    <g
       id="g905"
       transform="matrix(0.1478013,-0.01598514,0.01598514,0.1478013,62.994191,64.089622)">
      <path
         sodipodi:type="star"
         style="fill:#aa79c1;fill-opacity:1;stroke:#9558b2;stroke-width:1.75748;stroke-linejoin:round;stroke-miterlimit:4;stroke-dasharray:none;stroke-opacity:0.992157"
         id="path881"
         sodipodi:sides="6"
         sodipodi:cx="219.79559"
         sodipodi:cy="61.821411"
         sodipodi:r1="23.946278"
         sodipodi:r2="20.738085"
         sodipodi:arg1="1.0471976"
         sodipodi:arg2="1.5707963"
         inkscape:flatsided="true"
         inkscape:rounded="0"
         inkscape:randomized="0"
         transform="matrix(0.8660254,-0.5,-0.5,-0.8660254,60.357731,225.25812)"
         d="m 231.76873,82.559496 -23.94628,-10e-7 -11.97313,-20.738085 11.97314,-20.738084 23.94627,10e-7 11.97314,20.738085 z" />
      <rect
         style="fill:#aa79c1;fill-opacity:1;stroke:none;stroke-width:1.57246;stroke-linejoin:round;stroke-miterlimit:4;stroke-dasharray:none;stroke-opacity:0.92549"
         id="rect883"
         width="9.2884302"
         height="39.439148"
         x="213.5531"
         y="70.707451"
         ry="1.3803985"
         transform="matrix(0.99976953,0.02146809,0.02670557,0.99964334,0,0)" />
      <path
         style="fill:none;stroke:#aa79c1;stroke-width:0.894203px;stroke-linecap:butt;stroke-linejoin:miter;stroke-opacity:1"
         d="m 218.61868,112.90809 -12.53907,5.61932 0.32258,12.07458"
         id="path885" />
      <path
         style="fill:none;stroke:#aa79c1;stroke-width:0.894203;stroke-linecap:butt;stroke-linejoin:miter;stroke-miterlimit:4;stroke-dasharray:none;stroke-opacity:1"
         d="m 222.08517,112.96612 -10.15453,5.68524 0.32338,12.10475"
         id="path887" />
      <path
         style="fill:none;stroke:#aa79c1;stroke-width:0.894203;stroke-linecap:butt;stroke-linejoin:miter;stroke-miterlimit:4;stroke-dasharray:none;stroke-opacity:1"
         d="m 222.08517,112.96612 -5.70628,5.81376 0.32519,12.17243"
         id="path889" />
      <path
         style="fill:none;stroke:#aa79c1;stroke-width:0.890549px;stroke-linecap:butt;stroke-linejoin:miter;stroke-opacity:1"
         d="m 223.43948,112.81695 12.74885,6.16302 0.32262,12.07602"
         id="path891" />
      <path
         style="fill:none;stroke:#aa79c1;stroke-width:0.890549;stroke-linecap:butt;stroke-linejoin:miter;stroke-miterlimit:4;stroke-dasharray:none;stroke-opacity:1"
         d="m 220.00081,112.7267 10.38482,6.12699 0.32342,12.10617"
         id="path893" />
      <path
         style="fill:none;stroke:#aa79c1;stroke-width:0.890549;stroke-linecap:butt;stroke-linejoin:miter;stroke-miterlimit:4;stroke-dasharray:none;stroke-opacity:1"
         d="m 220.00081,112.7267 5.97512,6.0653 0.32523,12.17386"
         id="path895" />
    </g>
  </g>
</svg>
